<svg xmlns="http://www.w3.org/2000/svg" viewBox="0 0 512 512">
  <defs>
    <linearGradient id="grad" x1="0%" y1="0%" x2="100%" y2="100%">
      <stop offset="0%" style="stop-color:#6366f1;stop-opacity:1" />
      <stop offset="100%" style="stop-color:#8b5cf6;stop-opacity:1" />
    </linearGradient>
  </defs>
  <circle cx="256" cy="256" r="240" fill="url(#grad)"/>
  <rect x="120" y="200" width="272" height="160" rx="16" fill="white" opacity="0.95"/>
  <path d="M180 200 L180 160 Q180 140 200 140 L312 140 Q332 140 332 160 L332 200" fill="none" stroke="white" stroke-width="20" stroke-linecap="round" opacity="0.95"/>
  <line x1="256" y1="200" x2="256" y2="360" stroke="url(#grad)" stroke-width="8"/>
  <g transform="translate(160, 240) scale(0.8)">
    <path d="M40 20 L60 40 L50 50 L30 30 L40 20Z" fill="url(#grad)" opacity="0.9"/>
    <circle cx="70" cy="50" r="25" fill="none" stroke="url(#grad)" stroke-width="8"/>
    <path d="M50 50 L70 30" stroke="url(#grad)" stroke-width="8" stroke-linecap="round"/>
  </g>
  <g transform="translate(280, 230) scale(0.9)">
    <circle cx="60" cy="50" r="30" fill="none" stroke="url(#grad)" stroke-width="6"/>
    <circle cx="60" cy="50" r="8" fill="url(#grad)"/>
    <line x1="60" y1="20" x2="60" y2="80" stroke="url(#grad)" stroke-width="4" stroke-linecap="round"/>
    <line x1="30" y1="50" x2="90" y2="50" stroke="url(#grad)" stroke-width="4" stroke-linecap="round"/>
    <line x1="39" y1="29" x2="81" y2="71" stroke="url(#grad)" stroke-width="4" stroke-linecap="round"/>
    <line x1="81" y1="29" x2="39" y2="71" stroke="url(#grad)" stroke-width="4" stroke-linecap="round"/>
  </g>
  <circle cx="150" cy="150" r="8" fill="white" opacity="0.8"/>
  <circle cx="370" cy="170" r="6" fill="white" opacity="0.6"/>
  <circle cx="380" cy="350" r="7" fill="white" opacity="0.7"/>
</svg>